<svg id="Layer_2" data-name="Layer 2" fill="none" xmlns="http://www.w3.org/2000/svg" viewBox="0 0 1205.98 845.89">
  <defs>
    <style>
      path { fill: #000; }
        @media (prefers-color-scheme: dark) {
            path { fill: #FFF; }
        }
    </style>
  </defs>
  <g id="Layer_1-2" data-name="Layer 1">
    <g>
      <path d="M1103.01,844.89l-26.26-10.75-29.6-30.89-34.18-37.8-32.18-38.31-74.44-29.79-51.69-16.8-96.81-9.04-106.48.45-76.76-.45-68.34-5.16-72.32,5.16h-49.05s-60.69,14.2-60.69,14.2l-65.82,19.36-60.5,22.06-39.04,46.43-32.81,24.74-40.51,19.14H25.14l-24.14-13.52v-81.53l16.71-52.71,32.1-32.1,76.68-33.3,110.21-46.61,95.38-2.58,69.75-14.2,73.67-12.9h57.56s98.31,0,98.31,0l104.75,12.9h157.14s61.83,11.61,61.83,11.61l69.59,16.76,63.17,29.65,68.34,24.5,32.09,26.96,16.68,38.65v70.59l-21.86,47.57-32.67,37.69h-47.44ZM998.41,359.94c-49.52,0-89.81-80.51-89.81-179.47S948.89,1,998.41,1s89.81,80.51,89.81,179.47-40.29,179.47-89.81,179.47ZM202.4,359.94c-49.52,0-89.81-80.51-89.81-179.47S152.88,1,202.4,1s89.81,80.51,89.81,179.47-40.29,179.47-89.81,179.47Z"/>
      <path class="cls-1" d="M998.41,1.5c49.24,0,89.31,80.29,89.31,178.97s-40.06,178.97-89.31,178.97-89.31-80.29-89.31-178.97S949.17,1.5,998.41,1.5M202.4,1.5c49.24,0,89.31,80.29,89.31,178.97s-40.06,178.97-89.31,178.97-89.31-80.29-89.31-178.97S153.16,1.5,202.4,1.5M631.31,528.52l104.75,12.89h.06s.06,0,.06,0h156.99l61.81,11.59,69.54,16.74,63.12,29.63.04.02.04.02,68.21,24.45,31.93,26.82,16.6,38.45v70.38l-21.78,47.41-32.48,37.47h-47.11l-26.07-10.67-29.51-30.79-34.16-37.78-32.12-38.23-.16-.19-.23-.09-74.32-29.75h-.03s-.03-.02-.03-.02l-51.6-16.77-.11-.03h-.11s-96.76-9.04-96.76-9.04h-.05s-.05,0-.05,0l-106.42.45-76.73-.45-68.34-5.16h-.07s-.07,0-.07,0l-72.21,5.16h-49.11l-.11.03-60.64,14.19h-.03s-.03.01-.03.01l-65.8,19.35h-.03s-.03.02-.03.02l-60.35,22.01-.25.09-.17.2-38.92,46.28-32.73,24.67-40.36,19.08H25.27l-23.77-13.31v-81.15l16.65-52.52,31.95-31.95,76.58-33.26,110.13-46.58,95.28-2.58h.09s.09-.02.09-.02l69.64-14.19,73.6-12.89h155.81M998.41.5c-49.88,0-90.31,80.58-90.31,179.97s40.43,179.97,90.31,179.97,90.31-80.58,90.31-179.97S1048.29.5,998.41.5h0ZM202.4.5c-49.88,0-90.31,80.58-90.31,179.97s40.43,179.97,90.31,179.97,90.31-80.58,90.31-179.97S252.28.5,202.4.5h0ZM631.37,527.52h-155.95l-73.69,12.9-69.67,14.19-95.47,2.58-110.31,46.65-76.76,33.34-32.25,32.25L.5,722.32v81.9l24.51,13.72h60.62l40.65-19.21,32.9-24.8,38.99-46.37,60.35-22.01,65.8-19.35,60.64-14.19h49.02l72.25-5.16,68.38,5.16,76.76.45,106.44-.45,96.76,9.03,51.6,16.77,74.32,29.75,32.12,38.23,34.19,37.81,29.67,30.96,26.45,10.83h47.76l32.87-37.92,21.93-47.73v-70.81l-16.77-38.85-32.25-27.09-68.38-24.51-63.22-29.67-69.67-16.77-61.93-11.61h-157.08l-104.82-12.9h0Z"/>
    </g>
  </g>
</svg>